HIERARCHY
ROOT hip
{
	OFFSET 0.000000 0.000000 0.000000 
	CHANNELS 6 Xposition Yposition Zposition Xrotation Zrotation Yrotation
	JOINT abdomen
	{
		OFFSET 0.000000 3.402643 0.000000 
		CHANNELS 3 Xrotation Zrotation Yrotation
		JOINT chest
		{
			OFFSET 0.000000 8.438565 -0.680529 
			CHANNELS 3 Xrotation Zrotation Yrotation
			JOINT neck
			{
				OFFSET 0.000000 10.207942 -0.272212 
				CHANNELS 3 Xrotation Zrotation Yrotation
				JOINT head
				{
					OFFSET 0.000000 3.130431 0.000000 
					CHANNELS 3 Xrotation Zrotation Yrotation
					End Site
					{
						OFFSET 0.000000 3.130435 0.000000 
					}
				}
			}
			JOINT lCollar
			{
				OFFSET 3.470700 6.669187 -0.816635 
				CHANNELS 3 Yrotation Zrotation Xrotation
				JOINT lShldr
				{
					OFFSET 3.198488 0.000000 0.000000 
					CHANNELS 3 Zrotation Yrotation Xrotation
					JOINT lForeArm
					{
						OFFSET 10.139888 0.000000 0.000000 
						CHANNELS 3 Yrotation Zrotation Xrotation
						JOINT lHand
						{
							OFFSET 8.370511 0.000000 0.000000 
							CHANNELS 3 Zrotation Yrotation Xrotation
							End Site
							{
								OFFSET 4.083176 0.000000 0.000000 
							}
						}
					}
				}
			}
			JOINT rCollar
			{
				OFFSET -3.470700 6.669187 -0.816635 
				CHANNELS 3 Yrotation Zrotation Xrotation
				JOINT rShldr
				{
					OFFSET -3.198488 0.000000 0.000000 
					CHANNELS 3 Zrotation Yrotation Xrotation
					JOINT rForeArm
					{
						OFFSET -10.139888 0.000000 0.000000 
						CHANNELS 3 Yrotation Zrotation Xrotation
						JOINT rHand
						{
							OFFSET -8.370511 0.000000 0.000000 
							CHANNELS 3 Zrotation Yrotation Xrotation
							End Site
							{
								OFFSET -4.083176 0.000000 0.000000 
							}
						}
					}
				}
			}
		}
	}
	JOINT lThigh
	{
		OFFSET 5.308129 -1.633274 1.361059 
		CHANNELS 3 Xrotation Zrotation Yrotation
		JOINT lShin
		{
			OFFSET -2.041588 -20.007561 0.000000 
			CHANNELS 3 Xrotation Zrotation Yrotation
			JOINT lFoot
			{
				OFFSET 0.000000 -19.190928 -1.224953 
				CHANNELS 3 Xrotation Yrotation Zrotation
				End Site
				{
					OFFSET 0.000000 -2.449906 4.627600 
				}
			}
		}
	}
	JOINT rThigh
	{
		OFFSET -5.308129 -1.633274 1.361059 
		CHANNELS 3 Xrotation Zrotation Yrotation
		JOINT rShin
		{
			OFFSET 2.041588 -20.007561 0.000000 
			CHANNELS 3 Xrotation Zrotation Yrotation
			JOINT rFoot
			{
				OFFSET 0.000000 -19.190928 -1.224953 
				CHANNELS 3 Xrotation Yrotation Zrotation
				End Site
				{
					OFFSET 0.000000 -2.449906 4.627600 
				}
			}
		}
	}
}
MOTION
Frames: 11
Frame Time: 0.016667
31.780107 82.064201 -71.804199 -1.982424 0.078078 2.985579 21.832317 -0.622048 -2.510789 -20.839844 0.000000 0.000000 -0.916902 5.389997 15.780247 8.603792 -1.684224 0.126603 -4.754609 -0.109183 -0.002653 -53.913750 -1.648117 2.722888 0.458077 1.851456 28.705189 178.925476 168.242004 192.348099 4.754609 0.109183 -0.002672 64.008209 -2.568924 -15.028392 2.609049 0.140841 16.994818 179.484100 179.932343 172.957382 -6.991131 15.795246 13.064198 28.665180 -8.687237 -8.635746 -16.920233 -21.842999 1.076904 -7.124521 -5.182984 5.930031 25.148783 -1.458428 4.936194 -18.109879 -9.406736 4.400239 
31.778315 81.981964 -71.838432 -2.099619 0.175663 3.909575 22.310404 -0.737679 -2.645410 -20.839844 0.000000 0.000000 -0.337707 4.972844 23.854380 8.603792 -1.684224 0.126603 -4.754609 -0.109183 -0.002653 -57.608692 -1.839463 4.126935 0.032733 2.600777 29.126799 178.999832 168.759842 192.545609 4.754609 0.109183 -0.002672 67.891510 -2.969303 -14.478276 2.600516 0.135363 17.160835 179.445999 179.184311 172.160355 -7.705454 15.371426 11.945144 29.433672 -8.125849 -9.222110 -17.161478 -21.084772 1.120994 -7.331180 -5.662285 5.347427 26.063038 -0.805059 4.689072 -18.646879 -9.144527 4.323314 
31.771984 81.856308 -71.882355 -2.187523 0.263480 5.263373 22.875370 -0.844859 -2.856404 -20.839844 0.000000 0.000000 0.107927 4.563557 32.191441 8.603792 -1.684224 0.126603 -4.754609 -0.109183 -0.002653 -61.139038 -2.140387 5.701443 -0.417262 3.344057 29.650005 179.041534 168.906601 192.930954 4.754609 0.109183 -0.002672 71.780334 -3.605437 -13.931113 2.584867 0.139541 17.756815 179.580612 178.679276 170.926437 -8.806985 14.937079 10.624273 30.587164 -7.437670 -10.004375 -17.474808 -20.368618 1.175171 -7.620115 -5.913619 4.949930 27.287785 -0.375113 4.191200 -19.302929 -9.343733 4.236879 
31.748693 81.707672 -71.935471 -2.167995 0.283000 7.010771 23.448885 -0.897221 -3.100923 -20.839844 0.000000 0.000000 0.306468 4.226173 39.461803 8.603792 -1.684224 0.126603 -4.754609 -0.109183 -0.002653 -64.204597 -2.540450 6.967214 -1.838081 3.029252 29.874821 179.189041 168.965134 193.237595 4.754609 0.109183 -0.002672 75.682083 -4.150764 -13.257599 2.584166 0.141739 17.620115 -179.983109 178.407074 170.990829 -10.155484 14.646667 9.411891 31.880667 -6.774127 -10.986677 -17.769075 -20.062054 1.254640 -8.069432 -5.982220 4.734423 28.659861 -0.004623 3.472075 -19.978649 -9.978696 4.064779 
31.699499 81.564651 -72.005455 -1.982431 0.175676 9.046654 23.983868 -0.907257 -3.263880 -20.839844 0.000000 0.000000 0.261638 3.990979 44.830017 8.603792 -1.684224 0.126603 -4.754609 -0.109183 -0.002653 -66.922844 -3.064399 7.945069 -3.541109 1.884302 29.969671 179.732315 169.297180 193.208710 4.754609 0.109183 -0.002672 79.451530 -4.424202 -12.402566 2.606525 0.119964 16.457344 -178.934647 178.153015 172.766678 -11.647040 14.613473 8.582404 32.991131 -6.276363 -12.010732 -17.889599 -20.335768 1.284792 -8.704263 -5.865513 4.659566 30.017050 0.410039 2.510821 -20.433483 -11.072384 3.984138 
31.605618 81.411926 -72.091766 -1.621097 -0.107379 11.223742 24.462008 -0.879118 -3.280242 -20.839844 0.000000 0.000000 0.040976 3.870276 48.042595 8.603792 -1.684224 0.126603 -4.754609 -0.109183 -0.002653 -69.524117 -3.463269 9.004992 -5.459180 0.411321 30.539520 -179.657227 169.443558 192.664490 4.754609 0.109183 -0.002672 82.971878 -4.599433 -11.494376 2.621671 0.108683 15.646410 -177.067917 177.809753 174.057434 -13.365156 14.906387 8.117311 34.063164 -5.929868 -13.131410 -17.917259 -21.032415 1.215889 -9.809990 -6.013395 4.412249 31.701427 1.557004 1.643800 -20.552315 -12.075095 4.400133 
31.455084 81.233643 -72.184738 -1.142632 -0.556530 13.399771 24.895313 -0.892578 -3.077646 -20.839844 0.000000 0.000000 -0.326296 3.830195 49.334011 8.603792 -1.684224 0.126603 -4.754609 -0.109183 -0.002653 -71.989426 -3.485978 10.278039 -7.834418 -1.270993 31.731789 -179.196167 169.568848 191.890625 4.754609 0.109183 -0.002672 86.172813 -4.682532 -10.574319 2.614867 0.126220 16.232746 -175.154099 177.777710 173.336777 -15.415976 15.493052 7.777278 35.331516 -5.666496 -14.363931 -17.933996 -22.057726 0.919912 -11.378630 -7.085542 3.617918 33.891380 4.134669 1.566215 -20.398504 -11.908691 6.193973 
31.247345 81.044151 -72.269020 -0.615355 -1.132747 15.539507 25.321507 -0.951266 -2.701133 -20.839844 0.000000 0.000000 -0.711766 3.801333 49.232666 8.603792 -1.684224 0.126603 -4.754609 -0.109183 -0.002653 -73.952347 -3.116151 11.398335 -10.465435 -3.447584 32.969994 -178.973175 170.209824 191.153519 4.754609 0.109183 -0.002672 88.897575 -4.462938 -9.535854 2.594762 0.160184 17.874269 -174.284210 177.887527 171.265228 -17.632385 16.186420 7.393094 36.580566 -5.305805 -15.724053 -17.812546 -23.138983 0.259947 -13.030415 -9.136493 2.356628 36.281651 7.576857 2.981129 -20.006351 -9.828526 10.271871 
30.983728 80.891426 -72.336449 -0.117243 -1.767574 17.708694 25.728895 -1.085890 -2.262214 -20.839844 0.000000 0.000000 -0.961704 3.700488 48.306694 8.603792 -1.684224 0.126603 -4.754609 -0.109183 -0.002653 -75.340988 -2.337376 12.177710 -12.933830 -5.695590 34.241386 -178.885849 170.964447 190.282364 4.754609 0.109183 -0.002672 90.677544 -3.763080 -8.404153 2.565252 0.174165 19.261662 -175.050323 178.001526 169.815323 -19.829090 16.762482 6.848361 37.465698 -4.856135 -17.036358 -17.434265 -24.015825 -0.472177 -14.378306 -11.421021 1.250819 38.586956 10.408416 5.309803 -19.535992 -6.748668 14.316080 
30.668413 80.789780 -72.383438 0.322542 -2.373009 20.142502 26.076136 -1.225125 -1.866356 -20.839844 0.000000 0.000000 -0.881837 3.404183 46.899895 8.603792 -1.684224 0.126603 -4.754609 -0.109183 -0.002653 -75.916222 -1.071135 12.103540 -15.170627 -8.277606 35.216751 -178.216309 171.106155 189.024139 4.754609 0.109183 -0.002672 90.971992 -3.104817 -7.654987 2.552894 0.199602 20.277967 -176.698044 177.577515 169.096741 -21.850218 17.123951 6.196316 37.847164 -4.367747 -18.219376 -16.850376 -24.798914 -1.104545 -14.853126 -14.355038 -1.517827 41.093529 11.767397 6.235553 -19.693455 -2.842380 13.989732 
30.307333 80.719795 -72.412552 0.704015 -2.880642 23.040346 26.313873 -1.322408 -1.554068 -20.839844 0.000000 0.000000 -0.414953 2.915395 44.975273 8.603792 -1.684224 0.126603 -4.754609 -0.109183 -0.002653 -76.117508 0.600613 11.652399 -16.984495 -9.946014 35.345325 -177.277130 171.289581 188.901520 4.754609 0.109183 -0.002672 89.956841 -3.120887 -7.586841 2.534386 0.224587 21.655748 -177.212875 175.882141 167.864548 -23.665705 17.299385 5.615168 37.829746 -4.002251 -19.417309 -16.084824 -25.860117 -1.633423 -14.833302 -15.633984 -1.805156 43.388695 9.715167 4.534703 -20.610203 -5.110629 9.703970 
